# xmcd
#
# Track frame offsets:
#	150
#	17549
#	34094
#	52596
#	71332
#	85874
#	100174
#	116866
#	134773
#	152317
#	169748
#	185790
#	203659
#	220983
#	239456
#	255356
#
# Disc length: 3604 seconds
#
# Revision: 1
# Processed by: cddbd v1.5.2PL0 Copyright (c) Steve Scherf et al.
# Submitted via: audiograbber 1.82.02
#
DISCID=d20e1210
DTITLE=Various Artist - CB50703
DYEAR=2006
DGENRE=Karaoke
TTITLE0=Steve Holy - Brand New Girlfriend
TTITLE1=Big and Rich - Never Mind Me
TTITLE2=Eric Church - Sinners Like Me
TTITLE3=Kenny Chesney - You Save Me
TTITLE4=Darryl Worley - Nothin' But A Love Thang
TTITLE5=Emerson Drive - A Good Man
TTITLE6=Tim McGraw - When The Stars Go Blue
TTITLE7=Eric Church - How 'Bout You
TTITLE8=Dierks Bentley - Settle For A Slowdown
TTITLE9=Trent Tomlinson - One Wing In The Fire
TTITLE10=Trace Adkins - Swing
TTITLE11=Pat Green - Feels Just Like It Should
TTITLE12=Trent Willmon - On Again Tonight
TTITLE13=Phil Vassar - Last Day Of My Life
TTITLE14=Jason Aldean - Amarillo Sky
TTITLE15=Toby Keith - Crash Here Tonight
EXTD=
EXTT0=
EXTT1=
EXTT2=
EXTT3=
EXTT4=
EXTT5=
EXTT6=
EXTT7=
EXTT8=
EXTT9=
EXTT10=
EXTT11=
EXTT12=
EXTT13=
EXTT14=
EXTT15=
PLAYORDER=
